<svg xmlns="http://www.w3.org/2000/svg" width="900" height="440" viewBox="0 0 900 440">
<rect width="900" height="440" fill="white"/><g font-family="Arial,sans-serif" font-size="13" fill="#222">
<text x="30" y="28" font-size="20">Средний RTT, SRTT и потери</text><path d="M65 45 V360 H850" fill="none" stroke="#555"/>
<text x="15" y="48">мс</text><text x="850" y="48">%</text>
<rect x="90" y="358.6" width="24" height="1.4" fill="#2563eb"/><rect x="117" y="358.8" width="24" height="1.2" fill="#16a34a"/><rect x="144" y="360.0" width="24" height="0.0" fill="#dc2626"/><text x="80" y="382">baseline</text><rect x="215" y="256.9" width="24" height="103.1" fill="#2563eb"/><rect x="242" y="256.0" width="24" height="104.0" fill="#16a34a"/><rect x="269" y="360.0" width="24" height="0.0" fill="#dc2626"/><text x="205" y="382">delay_50</text><rect x="340" y="157.7" width="24" height="202.3" fill="#2563eb"/><rect x="367" y="156.8" width="24" height="203.2" fill="#16a34a"/><rect x="394" y="360.0" width="24" height="0.0" fill="#dc2626"/><text x="330" y="382">delay_100</text><rect x="465" y="175.9" width="24" height="184.1" fill="#2563eb"/><rect x="492" y="183.3" width="24" height="176.7" fill="#16a34a"/><rect x="519" y="360.0" width="24" height="0.0" fill="#dc2626"/><text x="455" y="382">jitter</text><rect x="590" y="358.6" width="24" height="1.4" fill="#2563eb"/><rect x="617" y="358.3" width="24" height="1.7" fill="#16a34a"/><rect x="644" y="200.0" width="24" height="160.0" fill="#dc2626"/><text x="580" y="382">loss_5</text><rect x="715" y="71.5" width="24" height="288.5" fill="#2563eb"/><rect x="742" y="74.4" width="24" height="285.6" fill="#16a34a"/><rect x="769" y="200.0" width="24" height="160.0" fill="#dc2626"/><text x="705" y="382">combined</text><text x="145" y="415" fill="#2563eb">■ mean RTT (мс)</text><text x="365" y="415" fill="#16a34a">■ SRTT (мс)</text><text x="540" y="415" fill="#dc2626">■ loss rate (%), правая шкала: 40 px/%</text>
</g></svg>
